<?xml version="1.0" encoding="UTF-8"?>
<svg version="1.1" xmlns="http://www.w3.org/2000/svg" width="512" height="512">
<path d="M0 0 C1.01545898 0.19867676 2.03091797 0.39735352 3.07714844 0.60205078 C52.9758035 10.58327711 96.53871388 34.88580573 133 70 C133.7940625 70.7528125 134.588125 71.505625 135.40625 72.28125 C140.75597303 77.46114055 145.38660506 83.16405541 150 89 C151.19109375 90.48306641 151.19109375 90.48306641 152.40625 91.99609375 C175.32205725 121.03970389 191.22147176 154.85685587 199.6875 190.8125 C199.97306763 191.99936401 199.97306763 191.99936401 200.2644043 193.21020508 C204.22851721 210.89052902 205.555362 228.61292655 205.4375 246.6875 C205.43293793 248.18546112 205.43293793 248.18546112 205.42828369 249.71368408 C205.35621635 265.78341917 204.43972751 281.25213186 201 297 C200.78037598 298.02625488 200.56075195 299.05250977 200.33447266 300.10986328 C191.83138831 338.85817193 174.61772522 375.56726438 149 406 C148.57138672 406.51739746 148.14277344 407.03479492 147.70117188 407.56787109 C137.18164284 420.2564129 126.03816903 431.86528878 113 442 C111.52660156 443.18142578 111.52660156 443.18142578 110.0234375 444.38671875 C79.03075655 469.0530687 42.45229279 485.30136285 3.75 493.25 C3.01966553 493.40114258 2.28933105 493.55228516 1.53686523 493.70800781 C-13.82073758 496.67407563 -29.02143327 497.37492896 -44.625 497.3125 C-45.59588562 497.31034485 -46.56677124 497.3081897 -47.56707764 497.30596924 C-61.90585186 497.25491637 -75.90546967 496.85949913 -90 494 C-91.01545898 493.80132324 -92.03091797 493.60264648 -93.07714844 493.39794922 C-142.9758035 483.41672289 -186.53871388 459.11419427 -223 424 C-223.7940625 423.2471875 -224.588125 422.494375 -225.40625 421.71875 C-230.75597303 416.53885945 -235.38660506 410.83594459 -240 405 C-240.7940625 404.01128906 -241.588125 403.02257812 -242.40625 402.00390625 C-266.9776499 370.86198961 -283.32468106 334.48759715 -291.25 295.6875 C-291.47671387 294.57942993 -291.47671387 294.57942993 -291.70800781 293.44897461 C-292.18439803 290.97158418 -292.60252786 288.49133778 -293 286 C-293.17805176 284.88423584 -293.35610352 283.76847168 -293.53955078 282.61889648 C-295.19998488 270.98027732 -295.3987437 259.43103747 -295.375 247.6875 C-295.37445618 246.6738739 -295.37391235 245.6602478 -295.37335205 244.61590576 C-295.33347417 228.41878779 -294.46747801 212.87491635 -291 197 C-290.78037598 195.97374512 -290.56075195 194.94749023 -290.33447266 193.89013672 C-279.82149525 145.98280374 -255.85138923 104.15003587 -222 69 C-221.2471875 68.2059375 -220.494375 67.411875 -219.71875 66.59375 C-214.53885945 61.24402697 -208.83594459 56.61339494 -203 52 C-202.01128906 51.2059375 -201.02257812 50.411875 -200.00390625 49.59375 C-167.66655102 24.07913264 -130.33332447 7.86607287 -90 0 C-89.17274414 -0.16661133 -88.34548828 -0.33322266 -87.49316406 -0.50488281 C-59.91781494 -5.80488028 -27.50199116 -5.57960557 0 0 Z " fill="#D64654" transform="translate(301,9)"/>
<path d="M0 0 C0.73537587 -0.00311998 1.47075174 -0.00623996 2.22841173 -0.00945449 C4.67559684 -0.01738788 7.12253076 -0.01112916 9.56971741 -0.00482178 C11.33114771 -0.00753373 13.09257688 -0.01109582 14.85400391 -0.01544189 C19.62672999 -0.02454445 24.39936941 -0.02103025 29.17209697 -0.01468372 C34.17317481 -0.0096119 39.17424535 -0.01431854 44.17532349 -0.01745605 C52.57405425 -0.02109258 60.97274981 -0.01630515 69.37147522 -0.0067749 C79.07186262 0.00410549 88.77216592 0.00058581 98.47255129 -0.01042771 C106.80991075 -0.01951372 115.14724494 -0.02077933 123.48460776 -0.01555037 C128.46022104 -0.01243745 133.43579484 -0.01200264 138.41140556 -0.01862335 C143.09080616 -0.02441516 147.77009872 -0.02036636 152.44948769 -0.00883484 C154.163505 -0.00619791 155.87753147 -0.00693677 157.5915451 -0.01136017 C159.93786042 -0.0168555 162.28383323 -0.00993355 164.63012695 0 C165.94104278 0.00075405 167.2519586 0.0015081 168.60259914 0.002285 C180.03315719 0.76417651 190.68737398 5.70454256 198.3785553 14.25396729 C205.07844671 23.63381527 206.67596829 31.27562072 206.5738678 42.65240479 C206.5710379 43.84250153 206.56820801 45.03259827 206.56529236 46.25875854 C206.55412347 50.04893165 206.52902447 53.83886595 206.5035553 57.62896729 C206.49352126 60.20318262 206.48439615 62.77740166 206.47621155 65.35162354 C206.45419487 71.65248586 206.42074979 77.95320951 206.3785553 84.25396729 C196.00814355 84.53300458 185.63863576 84.7457184 175.2652235 84.87571335 C170.4472337 84.93813382 165.63182628 85.02266341 160.81532288 85.15924072 C156.15961008 85.29042008 151.50636671 85.36153422 146.84894753 85.3924942 C145.07972151 85.41453042 143.3106187 85.45756812 141.54245567 85.52272797 C126.95270722 86.0386 126.95270722 86.0386 121.99076843 81.67401123 C120.0241683 79.6464299 118.43795948 77.59691727 116.74057007 75.31384277 C107.55909834 63.4196918 90.04976075 56.43648115 75.50306702 54.46929932 C59.54631068 52.85198616 44.29020849 53.43976525 30.2769928 61.87896729 C21.00424139 66.89231135 11.25315632 66.02281985 1.0035553 65.69146729 C-0.90784517 65.65626923 -2.81930885 65.62434536 -4.7308197 65.59576416 C-9.36262107 65.51949973 -13.99131378 65.3991975 -18.6214447 65.25396729 C-18.6214447 67.56396729 -18.6214447 69.87396729 -18.6214447 72.25396729 C-8.7214447 72.25396729 1.1785553 72.25396729 11.3785553 72.25396729 C9.3985553 74.56396729 7.4185553 76.87396729 5.3785553 79.25396729 C-1.5081312 88.00969187 -6.62766403 97.87013755 -10.6214447 108.25396729 C-13.2614447 108.25396729 -15.9014447 108.25396729 -18.6214447 108.25396729 C-18.6214447 110.56396729 -18.6214447 112.87396729 -18.6214447 115.25396729 C-16.6414447 115.25396729 -14.6614447 115.25396729 -12.6214447 115.25396729 C-12.63191833 116.01950928 -12.64239197 116.78505127 -12.65318298 117.5737915 C-12.69513774 121.09214911 -12.72089533 124.61045381 -12.7464447 128.12896729 C-12.76320251 129.33295166 -12.77996033 130.53693604 -12.79722595 131.77740479 C-12.83572638 138.86148419 -12.38195356 145.38063903 -10.6214447 152.25396729 C-13.2614447 152.25396729 -15.9014447 152.25396729 -18.6214447 152.25396729 C-18.6214447 154.23396729 -18.6214447 156.21396729 -18.6214447 158.25396729 C-15.3214447 158.25396729 -12.0214447 158.25396729 -8.6214447 158.25396729 C-8.14835876 159.2091626 -7.67527283 160.16435791 -7.18785095 161.14849854 C-0.75082997 173.8591392 6.88754743 183.50453034 18.06996155 192.35552979 C18.83179749 192.98201416 19.59363342 193.60849854 20.3785553 194.25396729 C20.3785553 194.58396729 20.3785553 194.91396729 20.3785553 195.25396729 C7.5085553 195.25396729 -5.3614447 195.25396729 -18.6214447 195.25396729 C-18.6214447 197.56396729 -18.6214447 199.87396729 -18.6214447 202.25396729 C-17.9679303 202.24508484 -17.31441589 202.23620239 -16.64109802 202.22705078 C-9.76142742 202.13768697 -2.88192498 202.07786856 3.9981842 202.03424072 C6.5565207 202.01428138 9.11481252 201.98710417 11.67298889 201.95220947 C36.68214538 201.61992682 36.68214538 201.61992682 49.06410217 205.34576416 C54.18787316 206.74974384 59.10069325 206.76843791 64.3785553 206.62896729 C65.33632874 206.62767822 66.29410217 206.62638916 67.28089905 206.62506104 C72.98908199 206.55458964 77.88489596 205.7599046 83.3785553 204.25396729 C84.6985553 204.25396729 86.0185553 204.25396729 87.3785553 204.25396729 C88.76649475 205.7510376 88.76649475 205.7510376 89.99183655 207.83209229 C90.43462952 208.5810376 90.87742249 209.32998291 91.33363342 210.10162354 C91.78158264 210.89439697 92.22953186 211.68717041 92.6910553 212.50396729 C93.15834045 213.28127197 93.62562561 214.05857666 94.10707092 214.85943604 C97.44980813 220.63639694 97.44980813 220.63639694 97.12538147 223.44830322 C96.3785553 225.25396729 96.3785553 225.25396729 94.3785553 226.25396729 C94.95922133 230.05956962 96.04277263 232.78054428 98.0113678 236.07818604 C98.56348938 237.01219238 99.11561096 237.94619873 99.6844635 238.9085083 C100.28476379 239.90938477 100.88506409 240.91026123 101.5035553 241.94146729 C102.77079667 244.08971942 104.03771182 246.23816401 105.30433655 248.38677979 C107.01178238 251.26749846 108.72017167 254.14762663 110.43269348 257.02532959 C112.18810328 259.97529085 113.9387032 262.92785527 115.67689514 265.88800049 C116.99672119 268.13458439 118.32615014 270.37556055 119.66615295 272.61016846 C126.27090544 283.88452865 126.27090544 283.88452865 124.81214905 291.02740479 C120.19536335 303.08536274 113.52628246 312.96952406 101.4254303 318.41021729 C100.41222717 318.82787354 100.41222717 318.82787354 99.3785553 319.25396729 C98.36535217 319.70256104 98.36535217 319.70256104 97.3316803 320.16021729 C87.59878327 323.99654166 76.93502395 323.23316577 67.3785553 319.25396729 C56.36008507 314.2237961 47.93338663 306.70560108 43.60328674 295.19267273 C41.40360418 288.53072228 40.9791524 282.54084646 41.08558655 275.55865479 C41.08860779 274.60547363 41.09162903 273.65229248 41.09474182 272.67022705 C41.11027504 269.15636146 41.15215715 265.6426519 41.1910553 262.12896729 C41.2529303 254.25021729 41.3148053 246.37146729 41.3785553 238.25396729 C13.3285553 238.25396729 -14.7214447 238.25396729 -43.6214447 238.25396729 C-43.71184204 212.27133753 -43.78548325 186.28883569 -43.82869339 160.30608845 C-43.84929251 148.24104991 -43.87736246 136.17611624 -43.92320251 124.11114502 C-43.96315138 113.59167651 -43.98889676 103.07228397 -43.99779868 92.55274171 C-44.00299978 86.9860116 -44.01516902 81.41949878 -44.04436493 75.85283852 C-44.07166122 70.60549776 -44.07986108 65.3584623 -44.07387543 60.11105728 C-44.07496933 58.19272003 -44.08283799 56.27437179 -44.0982666 54.35609627 C-44.22339142 37.98606073 -42.47572436 24.72285898 -30.74253845 12.25787354 C-22.19285853 4.22635603 -11.71479787 0.0067404 0 0 Z " fill="#FEFCFC" transform="translate(208.62144470214844,94.74603271484375)"/>
<path d="M0 0 C14.6321907 10.7724325 25.01177845 25.49395624 29.12109375 43.35546875 C32.01772451 64.06185271 28.25380794 83.96074404 15.62109375 100.9296875 C11.82400319 105.46721072 7.81045589 109.75521293 3.62109375 113.9296875 C5.71940162 117.57830595 7.81904586 121.22615098 9.91992188 124.87329102 C10.63415548 126.11363999 11.34802605 127.35419809 12.06152344 128.5949707 C13.08823376 130.3802741 14.11625522 132.1648168 15.14453125 133.94921875 C15.76247559 135.02276611 16.38041992 136.09631348 17.01708984 137.20239258 C18.16058691 139.14668569 19.36989602 141.0528909 20.62109375 142.9296875 C22.60109375 142.5996875 24.58109375 142.2696875 26.62109375 141.9296875 C30.54671282 147.38725548 33.89284634 153.10687413 37.12109375 158.9921875 C41.1349949 166.30951692 45.27838991 173.54045531 49.49609375 180.7421875 C50.08342285 181.75176514 50.67075195 182.76134277 51.27587891 183.80151367 C54.19947519 188.82271622 57.15447638 193.81900699 60.18359375 198.77734375 C61.287804 200.61976555 62.39197258 202.46221232 63.49609375 204.3046875 C64.01413574 205.1294458 64.53217773 205.9542041 65.06591797 206.80395508 C68.44342138 212.50095578 69.66981908 217.30631537 68.62109375 223.9296875 C66.12774872 228.91637757 62.62758426 232.42644224 57.62109375 234.9296875 C55.51953125 235.23828125 55.51953125 235.23828125 52.99609375 235.3671875 C52.17882812 235.42777344 51.3615625 235.48835937 50.51953125 235.55078125 C44.90136559 234.34688861 41.10659583 231.00648078 37.80126953 226.38549805 C35.94095994 223.31897098 34.20442724 220.20837353 32.49609375 217.0546875 C31.51837311 215.30457124 30.5406245 213.55446951 29.56080627 211.80552673 C28.5605711 210.0160804 27.56743231 208.22282035 26.57470703 206.42919922 C23.61717614 201.10659653 20.52011502 195.86565233 17.43359375 190.6171875 C11.08502248 179.76555986 4.83448221 168.85917925 -1.37890625 157.9296875 C-0.00390625 156.4296875 -0.00390625 156.4296875 1.62109375 154.9296875 C2.28109375 154.9296875 2.94109375 154.9296875 3.62109375 154.9296875 C1.72944778 151.42740912 -0.167987 147.92829837 -2.06640625 144.4296875 C-2.59685547 143.44742188 -3.12730469 142.46515625 -3.67382812 141.453125 C-6.45347026 136.33721922 -9.29424186 131.32842804 -12.50708008 126.47070312 C-13.37890625 124.9296875 -13.37890625 124.9296875 -13.37890625 122.9296875 C-14.09175781 123.20683594 -14.80460937 123.48398437 -15.5390625 123.76953125 C-16.49683594 124.13175781 -17.45460938 124.49398437 -18.44140625 124.8671875 C-19.85099609 125.40666016 -19.85099609 125.40666016 -21.2890625 125.95703125 C-38.58116824 131.40043748 -58.59668834 128.09386721 -74.42138672 120.01855469 C-92.51148552 109.95596543 -103.59550475 93.53033694 -109.37890625 73.9296875 C-109.99030095 71.01380508 -110.30995035 68.83568605 -110.37890625 65.9296875 C-110.41757813 64.73601562 -110.45625 63.54234375 -110.49609375 62.3125 C-110.97921545 40.73825912 -105.0109005 23.39667798 -90.07421875 7.47265625 C-65.54951388 -16.12734664 -28.24282082 -19.10182076 0 0 Z " fill="#FEFCFC" transform="translate(312.37890625,167.0703125)"/>
<path d="M0 0 C46.53 0 93.06 0 141 0 C141.33 12.21 141.66 24.42 142 37 C145.84950481 51.43564303 148.14583117 59.5409291 158.01171875 69.87109375 C160 72 160 72 162 75 C145.79619852 75.09373615 129.59248595 75.16412181 113.38847828 75.20724869 C105.86346649 75.22781183 98.33862386 75.25581166 90.8137207 75.30175781 C84.24958015 75.34181831 77.6855622 75.36747814 71.12130278 75.37635398 C67.65043964 75.38153653 64.17992702 75.39358395 60.70917702 75.42292023 C56.82013354 75.4555208 52.93142266 75.4559472 49.04223633 75.45410156 C47.91078186 75.46848267 46.77932739 75.48286377 45.61358643 75.49768066 C32.59566499 75.43128224 21.70404154 71.74140062 12 63 C-5.10221823 45.32452305 0 24.39750682 0 0 Z " fill="#FEFEFE" transform="translate(97,342)"/>
<path d="M0 0 C1.52596549 1.17537176 3.02847856 2.38214277 4.5 3.625 C5.13292969 4.15867188 5.76585937 4.69234375 6.41796875 5.2421875 C11.52500192 9.95463753 15.14408898 15.57771479 18.5 21.625 C18.93828125 22.3984375 19.3765625 23.171875 19.828125 23.96875 C25.08306376 35.36678618 24.32585056 51.69519633 20.4375 63.4375 C13.57851597 79.47399788 2.31227741 88.72498108 -13.19921875 95.86328125 C-23.90857643 99.40882411 -39.60966165 99.52668312 -49.953125 94.94921875 C-50.79359375 94.51222656 -51.6340625 94.07523437 -52.5 93.625 C-53.50546875 93.11582031 -54.5109375 92.60664063 -55.546875 92.08203125 C-68.99467164 84.77271889 -78.09124552 73.69544339 -82.5 58.9375 C-84.95188052 46.98257931 -85.21385404 33.61447739 -79.5 22.625 C-78.99082031 21.61953125 -78.48164063 20.6140625 -77.95703125 19.578125 C-71.07404057 6.91468219 -61.19230664 -1.83237834 -47.5625 -6.8125 C-31.38335312 -11.23723696 -14.04456048 -9.34195239 0 0 Z " fill="#EA494E" transform="translate(302.5,180.375)"/>
<path d="M0 0 C5.91462873 3.67701476 9.82104291 9.46312874 12 16 C12.08589303 17.39655459 12.11772715 18.79685777 12.11352539 20.19604492 C12.11340454 21.04839722 12.11328369 21.90074951 12.11315918 22.77893066 C12.10804321 23.67043823 12.10292725 24.5619458 12.09765625 25.48046875 C12.09664917 26.30309204 12.09564209 27.12571533 12.09460449 27.9732666 C12.08937449 31.04469192 12.07541322 34.11609737 12.0625 37.1875 C12.041875 44.055625 12.02125 50.92375 12 58 C-7.47 58 -26.94 58 -47 58 C-47.12375 51.6475 -47.2475 45.295 -47.375 38.75 C-47.42962402 36.7709668 -47.48424805 34.79193359 -47.54052734 32.75292969 C-47.71993566 21.56411005 -47.00292937 12.80354421 -39.25732422 4.02490234 C-37.60435751 2.4192367 -35.95245326 1.22078858 -34 0 C-33.36707031 -0.40992187 -32.73414063 -0.81984375 -32.08203125 -1.2421875 C-22.25865294 -6.58698996 -9.5166689 -5.45598499 0 0 Z " fill="#EF6133" transform="translate(392,110)"/>
<path d="M0 0 C37.62 0 75.24 0 114 0 C114 2.31 114 4.62 114 7 C76.38 7 38.76 7 0 7 C0 4.69 0 2.38 0 0 Z " fill="#EC5342" transform="translate(190,117)"/>
</svg>
